<?xml version="1.0" encoding="UTF-8"?><svg id="Layer_2" xmlns="http://www.w3.org/2000/svg" xmlns:xlink="http://www.w3.org/1999/xlink" viewBox="0 0 95.51 274.18"><defs><style>.cls-1{letter-spacing:-.02em;}.cls-2{letter-spacing:-.04em;}.cls-3{letter-spacing:-.03em;}.cls-4,.cls-5,.cls-6{fill:#fff;}.cls-7{font-family:FormaDJRDisplay-Regular, 'Forma DJR Display';font-size:8px;}.cls-7,.cls-8{fill:#725aa0;}.cls-9{letter-spacing:-.02em;}.cls-5,.cls-10,.cls-8,.cls-6{stroke:#725aa0;stroke-miterlimit:10;}.cls-5,.cls-8{stroke-width:.5px;}.cls-10{fill:none;stroke-width:.75px;}.cls-11{letter-spacing:-.03em;}.cls-12{letter-spacing:0em;}.cls-13{letter-spacing:-.02em;}.cls-14{letter-spacing:0em;}.cls-15{letter-spacing:0em;}</style></defs><g id="Layer_1-2"><g><line class="cls-10" x1="22" y1=".5" x2="22" y2="259.93"/><rect class="cls-4" x="3.84" y="48.15" width="36.34" height="11.23"/><rect class="cls-4" x="3.84" y="120.34" width="36.34" height="11.23"/><rect class="cls-4" x="3.84" y="192.54" width="36.34" height="11.23"/><g><circle class="cls-6" cx="22" cy="22" r="21.5"/><image width="130" height="130" transform="translate(.5 .5) scale(.33)" xlink:href="../Downloads/ImageAssistant_Batch_Image_Downloader/leagueoflegends.fandom.com/Rank_(League_of_Legends)_League_of_Legends_Wiki_Fandom/10001.Season_2022_-_Iron.png"/><text class="cls-7" transform="translate(15.53 56.05)"><tspan x="0" y="0">I</tspan><tspan class="cls-2" x="1.4" y="0">r</tspan><tspan x="3.77" y="0">on</tspan></text></g><circle class="cls-6" cx="22" cy="94.14" r="21.5"/><image width="130" height="130" transform="translate(.5 72.64) scale(.33)" xlink:href="../Downloads/ImageAssistant_Batch_Image_Downloader/leagueoflegends.fandom.com/Rank_(League_of_Legends)_League_of_Legends_Wiki_Fandom/10002.Season_2022_-_Bronze.png"/><text class="cls-7" transform="translate(10.49 128.19)"><tspan x="0" y="0">B</tspan><tspan class="cls-2" x="4.74" y="0">r</tspan><tspan x="7.1" y="0">on</tspan><tspan class="cls-11" x="15.18" y="0">z</tspan><tspan class="cls-12" x="18.43" y="0">e</tspan></text><circle class="cls-6" cx="22" cy="166.28" r="21.5"/><image width="130" height="130" transform="translate(.5 144.78) scale(.33)" xlink:href="../Downloads/ImageAssistant_Batch_Image_Downloader/leagueoflegends.fandom.com/Rank_(League_of_Legends)_League_of_Legends_Wiki_Fandom/10003.Season_2022_-_Silver.png"/><text class="cls-7" transform="translate(13.16 200.33)"><tspan x="0" y="0">Sil</tspan><tspan class="cls-9" x="7.33" y="0">v</tspan><tspan x="10.9" y="0">e</tspan><tspan class="cls-13" x="14.98" y="0">r</tspan></text><circle class="cls-6" cx="22" cy="238.42" r="21.5"/><image width="130" height="130" transform="translate(.5 216.92) scale(.33)" xlink:href="../Downloads/ImageAssistant_Batch_Image_Downloader/leagueoflegends.fandom.com/Rank_(League_of_Legends)_League_of_Legends_Wiki_Fandom/10004.Season_2022_-_Gold.png"/><text class="cls-7" transform="translate(14.78 272.47)"><tspan class="cls-15" x="0" y="0">G</tspan><tspan x="5.35" y="0">old</tspan></text><polyline class="cls-5" points="51 2.96 58.62 2.96 58.62 259.93 51 259.93"/><text class="cls-7" transform="translate(71.95 131.58)"><tspan class="cls-3" x="0" y="0">L</tspan><tspan class="cls-1" x="3.38" y="0">o</tspan><tspan class="cls-14" x="7.39" y="0">w</tspan><tspan class="cls-12" x="12.82" y="0"> </tspan><tspan x="14.09" y="0">el</tspan><tspan class="cls-12" x="19.47" y="0">o</tspan></text><line class="cls-8" x1="58.62" y1="128.19" x2="68.81" y2="128.19"/></g></g></svg>