<?xml version="1.0" encoding="UTF-8"?><svg id="Layer_2" xmlns="http://www.w3.org/2000/svg" xmlns:xlink="http://www.w3.org/1999/xlink" viewBox="0 0 105.81 346.32"><defs><style>.cls-1{letter-spacing:-.02em;}.cls-2{letter-spacing:-.02em;}.cls-3{letter-spacing:-.04em;}.cls-4{letter-spacing:-.02em;}.cls-5{letter-spacing:-.01em;}.cls-6,.cls-7,.cls-8{fill:#fff;}.cls-9{letter-spacing:-.02em;}.cls-10{font-family:FormaDJRDisplay-Regular, 'Forma DJR Display';font-size:8px;}.cls-10,.cls-11{fill:#725aa0;}.cls-7,.cls-12,.cls-11,.cls-8{stroke:#725aa0;stroke-miterlimit:10;}.cls-7,.cls-11{stroke-width:.5px;}.cls-12{fill:none;stroke-width:.75px;}.cls-13{letter-spacing:0em;}.cls-14{letter-spacing:0em;}.cls-15{letter-spacing:0em;}.cls-16{letter-spacing:-.02em;}</style></defs><g id="Layer_1-2"><g><line class="cls-12" x1="23.22" y1=".5" x2="23.22" y2="333.29"/><circle class="cls-8" cx="23.22" cy="311.79" r="21.5"/><rect class="cls-6" x="5.06" y="48.18" width="36.34" height="11.23"/><rect class="cls-6" x="5.06" y="120.35" width="36.34" height="11.23"/><rect class="cls-6" x="5.06" y="190.81" width="36.34" height="11.23"/><rect class="cls-6" x="5.06" y="265.09" width="36.34" height="11.23"/><image width="130" height="130" transform="translate(1.72 289.06) scale(.33)" xlink:href="../Downloads/ImageAssistant_Batch_Image_Downloader/leagueoflegends.fandom.com/Rank_(League_of_Legends)_League_of_Legends_Wiki_Fandom/10009.Season_2022_-_Challenger.png"/><circle class="cls-8" cx="23.22" cy="22" r="21.5"/><image width="130" height="130" transform="translate(1.72 .5) scale(.33)" xlink:href="../Downloads/ImageAssistant_Batch_Image_Downloader/leagueoflegends.fandom.com/Rank_(League_of_Legends)_League_of_Legends_Wiki_Fandom/10005.Season_2022_-_Platinum.png"/><text class="cls-10" transform="translate(9.98 56.05)"><tspan x="0" y="0">Platinum</tspan></text><circle class="cls-8" cx="23.22" cy="94.14" r="21.5"/><image width="130" height="130" transform="translate(1.72 72.64) scale(.33)" xlink:href="../Downloads/ImageAssistant_Batch_Image_Downloader/leagueoflegends.fandom.com/Rank_(League_of_Legends)_League_of_Legends_Wiki_Fandom/10006.Season_2022_-_Diamond.png"/><text class="cls-10" transform="translate(8.28 128.19)"><tspan x="0" y="0">Diamond</tspan></text><circle class="cls-8" cx="23.22" cy="166.28" r="21.5"/><image width="130" height="130" transform="translate(1.72 144.78) scale(.33)" xlink:href="../Downloads/ImageAssistant_Batch_Image_Downloader/leagueoflegends.fandom.com/Rank_(League_of_Legends)_League_of_Legends_Wiki_Fandom/10007.Season_2022_-_Master.png"/><text class="cls-10" transform="translate(9.49 200.33)"><tspan x="0" y="0">Ma</tspan><tspan class="cls-5" x="10.2" y="0">s</tspan><tspan class="cls-9" x="13.88" y="0">t</tspan><tspan class="cls-14" x="16.1" y="0">e</tspan><tspan class="cls-4" x="20.18" y="0">r</tspan><tspan x="22.71" y="0">s</tspan></text><circle class="cls-8" cx="22.36" cy="239.65" r="21.5"/><image width="130" height="130" transform="translate(1.72 216.92) scale(.33)" xlink:href="../Downloads/ImageAssistant_Batch_Image_Downloader/leagueoflegends.fandom.com/Rank_(League_of_Legends)_League_of_Legends_Wiki_Fandom/10008.Season_2022_-_Grandmaster.png"/><text class="cls-10" transform="translate(0 272.47)"><tspan x="0" y="0">G</tspan><tspan class="cls-3" x="5.31" y="0">r</tspan><tspan class="cls-14" x="7.68" y="0">andma</tspan><tspan class="cls-5" x="30.14" y="0">s</tspan><tspan class="cls-2" x="33.82" y="0">t</tspan><tspan x="36.04" y="0">e</tspan><tspan class="cls-1" x="40.12" y="0">r</tspan><tspan x="42.65" y="0">s</tspan></text><text class="cls-10" transform="translate(4.43 344.61)"><tspan x="0" y="0">Challenge</tspan><tspan class="cls-16" x="32.06" y="0">r</tspan></text><polyline class="cls-7" points="59.76 2.96 67.38 2.96 67.38 333.29 59.76 333.29"/><text class="cls-10" transform="translate(80.71 167.98)"><tspan x="0" y="0">High</tspan><tspan class="cls-13" x="14.36" y="0"> </tspan><tspan x="15.62" y="0">el</tspan><tspan class="cls-15" x="21.01" y="0">o</tspan></text><line class="cls-11" x1="67.38" y1="164.59" x2="77.57" y2="164.59"/></g></g></svg>