<svg width="730" height="327" viewBox="0 0 730 327" fill="none" xmlns="http://www.w3.org/2000/svg">
<path d="M581 204V248H631V204L616.831 224.63L607.059 204L595.495 224.63L581 204Z" fill="#CCFF00"/>
<path d="M23.183 124.904H35.599L33.295 140.008H21.007L18.703 153.576H31.119L27.535 177H39.439L43.023 153.576H56.847L53.263 177H65.167L68.751 153.576H81.039L83.215 140.008H70.927L73.231 124.904H85.647L87.823 111.336H75.407L78.863 89.192H66.959L63.503 111.336H49.679L53.135 89.192H41.231L37.775 111.336H25.487L23.183 124.904ZM47.503 124.904H61.327L59.023 140.008H45.199L47.503 124.904ZM133.746 179.048C154.354 179.048 169.33 168.68 169.33 150.12C169.33 130.408 153.97 125.928 135.154 121.832C121.586 118.888 115.186 116.712 115.186 109.288C115.186 102.76 121.714 98.536 131.698 98.536C141.17 98.536 148.338 103.144 149.362 112.36H167.154C165.746 93.928 152.434 83.816 131.826 83.816C111.474 83.816 96.754 93.16 96.754 111.208C96.754 130.28 111.73 134.632 128.114 138.344C142.066 141.544 150.77 143.336 150.77 152.296C150.77 160.744 142.45 164.072 132.978 164.072C119.922 164.072 113.65 159.72 112.37 148.712H94.194C94.834 168.04 108.914 179.048 133.746 179.048ZM237.247 177V111.336H219.839V149.224C219.839 157.928 214.847 164.072 206.655 164.072C199.231 164.072 195.775 159.848 195.775 152.168V111.336H178.495V155.112C178.495 169.448 186.687 178.792 201.279 178.792C210.495 178.792 215.615 175.336 220.095 169.32H220.479V177H237.247ZM248.507 177H265.915V138.856C265.915 130.152 270.651 124.52 277.691 124.52C284.091 124.52 287.803 128.36 287.803 135.784V177H305.211V138.856C305.211 130.152 309.691 124.52 316.987 124.52C323.387 124.52 327.099 128.36 327.099 135.784V177H344.507V132.84C344.507 118.504 336.699 109.544 322.875 109.544C314.555 109.544 307.643 113.896 303.163 121.064H302.907C299.707 114.152 293.051 109.544 284.731 109.544C275.643 109.544 269.243 114.152 265.659 120.168H265.275V111.336H248.507V177ZM355.257 177H372.665V138.856C372.665 130.152 377.401 124.52 384.441 124.52C390.841 124.52 394.553 128.36 394.553 135.784V177H411.961V138.856C411.961 130.152 416.441 124.52 423.737 124.52C430.137 124.52 433.849 128.36 433.849 135.784V177H451.257V132.84C451.257 118.504 443.449 109.544 429.625 109.544C421.305 109.544 414.393 113.896 409.913 121.064H409.657C406.457 114.152 399.801 109.544 391.481 109.544C382.393 109.544 375.993 114.152 372.409 120.168H372.025V111.336H355.257V177ZM493.111 178.92C513.463 178.92 527.415 163.816 527.415 144.232C527.415 124.648 513.463 109.544 493.111 109.544C472.759 109.544 458.807 124.648 458.807 144.232C458.807 163.816 472.759 178.92 493.111 178.92ZM493.111 165.608C482.359 165.608 476.471 157.032 476.471 144.232C476.471 131.432 482.359 122.728 493.111 122.728C503.735 122.728 509.751 131.432 509.751 144.232C509.751 157.032 503.735 165.608 493.111 165.608ZM552.531 111.336H535.507V177H552.915V139.752C552.915 130.792 558.547 124.648 566.227 124.648C573.523 124.648 577.619 129.64 577.619 136.68V177H595.027V134.12C595.027 119.784 585.939 109.544 572.371 109.544C563.411 109.544 557.395 113.256 552.915 120.296H552.531V111.336ZM636.605 178.92C653.501 178.92 663.869 169.064 666.301 157.416H649.149C647.229 162.408 643.261 165.48 636.477 165.48C626.621 165.48 620.989 159.208 619.709 149.096H667.325C667.325 125.672 656.061 109.544 634.941 109.544C615.741 109.544 602.557 124.648 602.557 144.104C602.557 163.688 614.845 178.92 636.605 178.92ZM635.197 122.984C643.133 122.984 648.637 128.744 649.149 137.064H619.965C621.501 128.488 625.981 122.984 635.197 122.984ZM692.15 111.336H675.382V177H692.79V145C692.79 131.176 700.982 125.16 712.374 126.312H712.758V111.08C711.734 110.696 710.582 110.568 708.662 110.568C700.982 110.568 696.502 114.408 692.534 121.832H692.15V111.336ZM191.415 305H209.975V268.264H224.951C236.471 268.264 242.103 273.896 242.871 283.88C243.639 293.736 243.895 303.976 246.199 305H263.991V304.104C260.791 302.696 261.303 292.84 260.023 279.912C258.871 268.776 254.519 263.912 246.071 261.48V261.096C257.847 257.896 262.839 249.704 262.839 238.952C262.839 223.72 251.063 213.48 233.399 213.48H191.415V305ZM209.975 228.456H230.199C240.055 228.456 244.791 233.96 244.791 241.384C244.791 248.68 239.799 253.928 229.687 253.928H209.975V228.456ZM303.605 306.92C320.501 306.92 330.869 297.064 333.301 285.416H316.149C314.229 290.408 310.261 293.48 303.477 293.48C293.621 293.48 287.989 287.208 286.709 277.096H334.325C334.325 253.672 323.061 237.544 301.941 237.544C282.741 237.544 269.557 252.648 269.557 272.104C269.557 291.688 281.845 306.92 303.605 306.92ZM302.197 250.984C310.133 250.984 315.637 256.744 316.149 265.064H286.965C288.501 256.488 292.981 250.984 302.197 250.984ZM372.846 306.92C390.382 306.92 401.262 295.784 402.414 281.832H385.646C384.494 289.256 379.502 292.968 372.462 292.968C361.838 292.968 356.846 284.648 356.846 272.232C356.846 259.56 362.222 251.496 372.718 251.496C379.118 251.496 383.598 255.848 384.75 261.608H401.774C399.47 247.4 388.974 237.544 371.95 237.544C351.982 237.544 339.182 252.648 339.182 272.232C339.182 291.816 352.11 306.92 372.846 306.92ZM452.601 305H469.369V304.36C467.833 303.208 467.065 300.264 467.065 295.272V261.864C467.065 246.504 459.129 237.672 439.417 237.672C420.217 237.672 411.641 247.784 411.129 259.304H426.617C427.129 253.032 431.097 250.088 439.289 250.088C446.585 250.088 450.297 253.16 450.297 257.896C450.297 262.888 445.305 263.784 434.425 265.32C419.833 267.368 408.057 271.976 408.057 286.44C408.057 299.496 417.529 306.536 430.969 306.536C442.233 306.536 446.969 302.696 450.297 297.704H450.553C450.937 300.648 451.577 303.72 452.601 305ZM435.193 294.376C429.049 294.376 424.953 292.2 424.953 286.056C424.953 279.912 429.433 277.864 438.521 275.816C442.873 274.792 447.609 273.768 450.681 271.976V281.832C450.681 288.232 445.177 294.376 435.193 294.376ZM478.132 326.504H495.54V297.576H495.796C499.508 303.208 505.524 306.92 514.74 306.92C531.636 306.92 543.156 293.48 543.156 272.232C543.156 251.752 532.02 237.544 514.612 237.544C505.652 237.544 499.508 241.768 495.284 247.528H494.9V239.336H478.132V326.504ZM511.028 292.456C500.66 292.456 495.156 284.648 495.156 272.744C495.156 260.968 499.508 251.624 510.388 251.624C521.14 251.624 525.492 260.328 525.492 272.744C525.492 285.16 519.86 292.456 511.028 292.456Z" fill="white"/>
<path d="M11.616 40H18.576V26.752L30 5.68H22.704L17.616 15.856C16.608 17.92 15.312 20.752 15.312 20.752H15.216C15.216 20.752 14.016 17.92 12.96 15.856L7.776 5.68H0.192L11.616 26.752V40ZM38.901 40.72C46.533 40.72 51.765 35.056 51.765 27.712C51.765 20.368 46.533 14.704 38.901 14.704C31.269 14.704 26.037 20.368 26.037 27.712C26.037 35.056 31.269 40.72 38.901 40.72ZM38.901 35.728C34.869 35.728 32.661 32.512 32.661 27.712C32.661 22.912 34.869 19.648 38.901 19.648C42.885 19.648 45.141 22.912 45.141 27.712C45.141 32.512 42.885 35.728 38.901 35.728ZM76.6395 40V15.376H70.1115V29.584C70.1115 32.848 68.2395 35.152 65.1675 35.152C62.3835 35.152 61.0875 33.568 61.0875 30.688V15.376H54.6075V31.792C54.6075 37.168 57.6795 40.672 63.1515 40.672C66.6075 40.672 68.5275 39.376 70.2075 37.12H70.3515V40H76.6395ZM87.15 15.376H80.862V40H87.39V28C87.39 22.816 90.462 20.56 94.734 20.992H94.878V15.28C94.494 15.136 94.062 15.088 93.342 15.088C90.462 15.088 88.782 16.528 87.294 19.312H87.15V15.376ZM117.321 40.72C124.089 40.72 129.705 37.408 129.705 30.592C129.705 26.032 127.209 23.344 123.033 22.336V22.24C126.297 21.184 128.649 19.024 128.649 15.328C128.649 9.856 124.233 6.448 117.369 6.448C109.737 6.448 105.657 10.816 105.417 17.296H111.657C111.801 13.888 113.625 11.44 117.369 11.44C120.249 11.44 122.025 13.168 122.025 15.76C122.025 18.544 119.817 20.128 116.697 20.128H114.825V25.072H116.841C120.873 25.072 122.889 26.992 122.889 30.16C122.889 33.52 120.729 35.488 117.081 35.488C112.569 35.488 110.841 32.752 110.601 28.816H104.361C104.457 36.016 108.825 40.72 117.321 40.72ZM150.554 40H157.514V26.752L168.938 5.68H161.642L156.554 15.856C155.546 17.92 154.25 20.752 154.25 20.752H154.154C154.154 20.752 152.954 17.92 151.898 15.856L146.714 5.68H139.13L150.554 26.752V40ZM177.743 40.72C184.079 40.72 187.967 37.024 188.879 32.656H182.447C181.727 34.528 180.239 35.68 177.695 35.68C173.999 35.68 171.887 33.328 171.407 29.536H189.263C189.263 20.752 185.039 14.704 177.119 14.704C169.919 14.704 164.975 20.368 164.975 27.664C164.975 35.008 169.583 40.72 177.743 40.72ZM177.215 19.744C180.191 19.744 182.255 21.904 182.447 25.024H171.503C172.079 21.808 173.759 19.744 177.215 19.744ZM207.788 40H214.076V39.76C213.5 39.328 213.212 38.224 213.212 36.352V23.824C213.212 18.064 210.236 14.752 202.844 14.752C195.644 14.752 192.428 18.544 192.236 22.864H198.044C198.236 20.512 199.724 19.408 202.796 19.408C205.532 19.408 206.924 20.56 206.924 22.336C206.924 24.208 205.052 24.544 200.972 25.12C195.5 25.888 191.084 27.616 191.084 33.04C191.084 37.936 194.636 40.576 199.676 40.576C203.9 40.576 205.676 39.136 206.924 37.264H207.02C207.164 38.368 207.404 39.52 207.788 40ZM201.26 36.016C198.956 36.016 197.42 35.2 197.42 32.896C197.42 30.592 199.1 29.824 202.508 29.056C204.14 28.672 205.916 28.288 207.068 27.616V31.312C207.068 33.712 205.004 36.016 201.26 36.016ZM223.65 15.376H217.362V40H223.89V28C223.89 22.816 226.962 20.56 231.234 20.992H231.378V15.28C230.994 15.136 230.562 15.088 229.842 15.088C226.962 15.088 225.282 16.528 223.794 19.312H223.65V15.376Z" fill="white"/>
</svg>
