<svg width="730" height="257" viewBox="0 0 730 257" fill="none" xmlns="http://www.w3.org/2000/svg">
<path d="M7.808 54.904H20.224L17.92 70.008H5.632L3.328 83.576H15.744L12.16 107H24.064L27.648 83.576H41.472L37.888 107H49.792L53.376 83.576H65.664L67.84 70.008H55.552L57.856 54.904H70.272L72.448 41.336H60.032L63.488 19.192H51.584L48.128 41.336H34.304L37.76 19.192H25.856L22.4 41.336H10.112L7.808 54.904ZM32.128 54.904H45.952L43.648 70.008H29.824L32.128 54.904ZM118.371 109.048C138.979 109.048 153.955 98.68 153.955 80.12C153.955 60.408 138.595 55.928 119.779 51.832C106.211 48.888 99.811 46.712 99.811 39.288C99.811 32.76 106.339 28.536 116.323 28.536C125.795 28.536 132.963 33.144 133.987 42.36H151.779C150.371 23.928 137.059 13.816 116.451 13.816C96.099 13.816 81.379 23.16 81.379 41.208C81.379 60.28 96.355 64.632 112.739 68.344C126.691 71.544 135.395 73.336 135.395 82.296C135.395 90.744 127.075 94.072 117.603 94.072C104.547 94.072 98.275 89.72 96.995 78.712H78.819C79.459 98.04 93.539 109.048 118.371 109.048ZM221.872 107V41.336H204.464V79.224C204.464 87.928 199.472 94.072 191.28 94.072C183.856 94.072 180.4 89.848 180.4 82.168V41.336H163.12V85.112C163.12 99.448 171.312 108.792 185.904 108.792C195.12 108.792 200.24 105.336 204.72 99.32H205.104V107H221.872ZM233.132 107H250.54V68.856C250.54 60.152 255.276 54.52 262.316 54.52C268.716 54.52 272.428 58.36 272.428 65.784V107H289.836V68.856C289.836 60.152 294.316 54.52 301.612 54.52C308.012 54.52 311.724 58.36 311.724 65.784V107H329.132V62.84C329.132 48.504 321.324 39.544 307.5 39.544C299.18 39.544 292.268 43.896 287.788 51.064H287.532C284.332 44.152 277.676 39.544 269.356 39.544C260.268 39.544 253.868 44.152 250.284 50.168H249.9V41.336H233.132V107ZM339.882 107H357.29V68.856C357.29 60.152 362.026 54.52 369.066 54.52C375.466 54.52 379.178 58.36 379.178 65.784V107H396.586V68.856C396.586 60.152 401.066 54.52 408.362 54.52C414.762 54.52 418.474 58.36 418.474 65.784V107H435.882V62.84C435.882 48.504 428.074 39.544 414.25 39.544C405.93 39.544 399.018 43.896 394.538 51.064H394.282C391.082 44.152 384.426 39.544 376.106 39.544C367.018 39.544 360.618 44.152 357.034 50.168H356.65V41.336H339.882V107ZM477.736 108.92C498.088 108.92 512.04 93.816 512.04 74.232C512.04 54.648 498.088 39.544 477.736 39.544C457.384 39.544 443.432 54.648 443.432 74.232C443.432 93.816 457.384 108.92 477.736 108.92ZM477.736 95.608C466.984 95.608 461.096 87.032 461.096 74.232C461.096 61.432 466.984 52.728 477.736 52.728C488.36 52.728 494.376 61.432 494.376 74.232C494.376 87.032 488.36 95.608 477.736 95.608ZM537.156 41.336H520.132V107H537.54V69.752C537.54 60.792 543.172 54.648 550.852 54.648C558.148 54.648 562.244 59.64 562.244 66.68V107H579.652V64.12C579.652 49.784 570.564 39.544 556.996 39.544C548.036 39.544 542.02 43.256 537.54 50.296H537.156V41.336ZM621.23 108.92C638.126 108.92 648.494 99.064 650.926 87.416H633.774C631.854 92.408 627.886 95.48 621.102 95.48C611.246 95.48 605.614 89.208 604.334 79.096H651.95C651.95 55.672 640.686 39.544 619.566 39.544C600.366 39.544 587.182 54.648 587.182 74.104C587.182 93.688 599.47 108.92 621.23 108.92ZM619.822 52.984C627.758 52.984 633.262 58.744 633.774 67.064H604.59C606.126 58.488 610.606 52.984 619.822 52.984ZM676.775 41.336H660.007V107H677.415V75C677.415 61.176 685.607 55.16 696.999 56.312H697.383V41.08C696.359 40.696 695.207 40.568 693.287 40.568C685.607 40.568 681.127 44.408 677.159 51.832H676.775V41.336ZM7.04 235H25.6V198.264H40.576C52.096 198.264 57.728 203.896 58.496 213.88C59.264 223.736 59.52 233.976 61.824 235H79.616V234.104C76.416 232.696 76.928 222.84 75.648 209.912C74.496 198.776 70.144 193.912 61.696 191.48V191.096C73.472 187.896 78.464 179.704 78.464 168.952C78.464 153.72 66.688 143.48 49.024 143.48H7.04V235ZM25.6 158.456H45.824C55.68 158.456 60.416 163.96 60.416 171.384C60.416 178.68 55.424 183.928 45.312 183.928H25.6V158.456ZM119.23 236.92C136.126 236.92 146.494 227.064 148.926 215.416H131.774C129.854 220.408 125.886 223.48 119.102 223.48C109.246 223.48 103.614 217.208 102.334 207.096H149.95C149.95 183.672 138.686 167.544 117.566 167.544C98.366 167.544 85.182 182.648 85.182 202.104C85.182 221.688 97.47 236.92 119.23 236.92ZM117.822 180.984C125.758 180.984 131.262 186.744 131.774 195.064H102.59C104.126 186.488 108.606 180.984 117.822 180.984ZM188.471 236.92C206.007 236.92 216.887 225.784 218.039 211.832H201.271C200.119 219.256 195.127 222.968 188.087 222.968C177.463 222.968 172.471 214.648 172.471 202.232C172.471 189.56 177.847 181.496 188.343 181.496C194.743 181.496 199.223 185.848 200.375 191.608H217.399C215.095 177.4 204.599 167.544 187.575 167.544C167.607 167.544 154.807 182.648 154.807 202.232C154.807 221.816 167.735 236.92 188.471 236.92ZM268.226 235H284.994V234.36C283.458 233.208 282.69 230.264 282.69 225.272V191.864C282.69 176.504 274.754 167.672 255.042 167.672C235.842 167.672 227.266 177.784 226.754 189.304H242.242C242.754 183.032 246.722 180.088 254.914 180.088C262.21 180.088 265.922 183.16 265.922 187.896C265.922 192.888 260.93 193.784 250.05 195.32C235.458 197.368 223.682 201.976 223.682 216.44C223.682 229.496 233.154 236.536 246.594 236.536C257.858 236.536 262.594 232.696 265.922 227.704H266.178C266.562 230.648 267.202 233.72 268.226 235ZM250.818 224.376C244.674 224.376 240.578 222.2 240.578 216.056C240.578 209.912 245.058 207.864 254.146 205.816C258.498 204.792 263.234 203.768 266.306 201.976V211.832C266.306 218.232 260.802 224.376 250.818 224.376ZM293.757 256.504H311.165V227.576H311.421C315.133 233.208 321.149 236.92 330.365 236.92C347.261 236.92 358.781 223.48 358.781 202.232C358.781 181.752 347.645 167.544 330.237 167.544C321.277 167.544 315.133 171.768 310.909 177.528H310.525V169.336H293.757V256.504ZM326.653 222.456C316.285 222.456 310.781 214.648 310.781 202.744C310.781 190.968 315.133 181.624 326.013 181.624C336.765 181.624 341.117 190.328 341.117 202.744C341.117 215.16 335.485 222.456 326.653 222.456Z" fill="#004FC7"/>
<path d="M380 130V174H430V130L415.831 150.63L406.059 130L394.495 150.63L380 130Z" fill="#CCFF00"/>
</svg>
